# xmcd CD database file
#
# Track frame offsets:
#	150
#	13001
#	28246
#	46157
#	62034
#	79784
#	98698
#	115495
#	127688
#	141856
#	157823
#	174370
#	191849
#	205137
#	225049
#	237569
#
# Disc length: 3419 seconds
#
# Revision: 0
# Processed by: cddbd v1.5.2PL0 Copyright (c) Steve Scherf et al.
# Submitted via: CDex 1.75
#
DISCID=c70d5910
DTITLE=Marina and The Kats - Wild
DYEAR=2016
DGENRE=Jazz
TTITLE0=Kat Walk
TTITLE1=Shim Sham
TTITLE2=Miss Jekyll and Mister Hyde
TTITLE3=Bamboozle Boogie
TTITLE4=Moon On The Hill
TTITLE5=Easy Does It!
TTITLE6=Paradise City
TTITLE7=Wild
TTITLE8=Superb
TTITLE9=And Her Tears Flowed Like Wine
TTITLE10=Porcelain
TTITLE11=I Fell For You
TTITLE12=COFFEE
TTITLE13=Sweets On The Top Shelf
TTITLE14=Treat Me Nice!
TTITLE15=Forever Young
EXTD=YEAR: 2016
EXTT0=
EXTT1=
EXTT2=
EXTT3=
EXTT4=
EXTT5=
EXTT6=
EXTT7=
EXTT8=
EXTT9=
EXTT10=
EXTT11=
EXTT12=
EXTT13=
EXTT14=
EXTT15=
PLAYORDER=
